<svg id="twitter" xmlns="http://www.w3.org/2000/svg" viewBox="0 0 510.99 510.99">
  <path id="twitter-2" data-name="twitter" fill="#fff" d="M576,216.58C389.59,175.2,227.12,337.66,268.5,524.11A251.18,251.18,0,0,0,459,714.56C645.4,756,807.87,593.48,766.49,407A251.2,251.2,0,0,0,576,216.58Zm65.81,186.2c-6.05,4.44-7.67,9.31-7.77,16.59-1,69.36-47.59,143.37-128.81,160.53-42.65,9-83.28,3.32-121.35-18.5-1.3-.74-4.07-2.94-4.32-3.53,30.87,2.58,58.66-5.14,84.47-24.35-27.08-2.76-44.81-16-54.62-41.07H438c-30.51-8.36-47.06-27.54-49.18-58.36l27.7,7.93c-27.26-22-34-48.33-19.44-80.25,32,37.54,71.77,58.07,120.2,61.55,0-6.94-.74-13.76.13-20.36,3.07-23.34,15.82-39.81,37.75-47.94,21.73-8,41.95-3.94,59.45,11.46,2.91,2.57,5.29,3.41,8.79,2.13,10.4-3.82,20.83-7.54,31.33-11.32-4.09,12.15-12.1,21.87-22.58,30.51,5-1.08,10.07-2,15-3.3s9.71-3.13,15.55-5.05C656.6,388.83,650.05,396.76,641.84,402.78Z" transform="translate(-262 -210.08)"/>
</svg>
